<?xml version="1.0" encoding="UTF-8"?><svg id="_レイヤー_2" xmlns="http://www.w3.org/2000/svg" xmlns:xlink="http://www.w3.org/1999/xlink" viewBox="0 0 1600 1200"><defs><style>.cls-1{fill:none;}.cls-2{fill:#e6e6e6;}.cls-3{fill:url(#_新規パターンスウォッチ_6);}</style><pattern id="_新規パターンスウォッチ_6" x="0" y="0" width="346.5" height="599" patternUnits="userSpaceOnUse" viewBox="0 0 346.5 599"><rect class="cls-1" width="346.5" height="599"/><polygon class="cls-1" points="366.63 643.77 268.62 643.93 317.66 558.97 366.63 643.77"/><polygon class="cls-1" points="303.9 535.13 265.06 512.7 265.06 467.84 303.9 535.13"/><polygon class="cls-1" points="309.06 553.88 260.06 638.76 211.05 553.88 309.06 553.88"/><polygon class="cls-1" points="299.06 543.88 221.05 543.88 260.06 521.36 299.06 543.88"/><polygon class="cls-1" points="251.51 643.95 153.19 644.11 202.39 558.88 251.51 643.95"/><polygon class="cls-1" points="255.06 467.66 255.06 512.7 216.05 535.22 255.06 467.66"/><path class="cls-2" d="M611.14,449.59c0,.07-.01.15-.02.23-.02.28-.06.56-.14.83v.03c-.08.26-.18.51-.29.77-.04.07-.07.14-.11.21-.03.07-.06.14-.1.2l-57.66,99.88-115.33,199.76c-.04.06-.09.12-.13.18-.04.07-.08.14-.13.2-.16.23-.33.44-.52.64,0,0,0,.01-.02.02-.2.2-.42.37-.65.54-.07.04-.13.08-.19.12-.22.14-.44.26-.67.37-.04,0-.06.03-.1.04-.26.11-.53.19-.81.25-.07.02-.15.04-.22.05-.29.05-.59.09-.89.09s-.6-.04-.89-.09c-.08-.01-.15-.03-.23-.05-.25-.05-.5-.13-.74-.22h-113.6l-115.5.36h-115.34c-.22,0-.44-.02-.66-.04-.07-.01-.14-.03-.2-.04-.15-.03-.29-.05-.44-.09-.08-.02-.16-.06-.25-.08-.12-.04-.24-.08-.36-.13-.07-.03-.14-.07-.21-.1-.13-.06-.25-.11-.38-.19-.05-.03-.1-.06-.15-.09-.13-.09-.26-.17-.39-.27-.04-.03-.07-.06-.11-.09-.13-.11-.26-.21-.38-.33-.05-.05-.09-.1-.13-.15-.11-.11-.21-.22-.3-.34-.14-.18-.27-.37-.38-.56-.15-.26-.27-.54-.37-.82-.02-.07-.05-.14-.07-.22-.08-.27-.15-.54-.19-.82v-.11c-.03-.25-.03-.5-.02-.76,0-.07,0-.15.01-.23.03-.28.07-.56.14-.83,0-.01.01-.02.01-.03.07-.26.17-.51.29-.77.03-.07.07-.14.1-.21.04-.07.06-.14.1-.2l172.73-299.18h.01c.1-.28.21-.56.36-.82.15-.26.33-.5.52-.73.05-.06.11-.11.16-.17.19-.21.4-.4.62-.58.03-.02.06-.03.09-.06.2-.14.42-.27.64-.39.07-.04.14-.07.22-.1.25-.12.51-.23.78-.3.02,0,.03,0,.04-.01.26-.06.53-.1.8-.13.08-.01.16-.01.24-.02.08,0,.15,0,.22,0h115.33l115.56.36h115.31c.08,0,.15.01.22.02.09,0,.17,0,.25.01.27.03.54.07.79.14h.04c.28.08.54.18.79.3.07.03.14.07.21.1.23.12.44.25.65.4.03.02.06.03.09.06.22.17.42.36.62.57l.15.18c.19.22.37.46.52.72s.27.54.37.82c.03.07.05.14.07.22.09.27.16.54.19.82.01.04.01.07.01.11.03.25.03.5.02.76ZM490.82,459.36l-48.91,84.71,97.91.16-49-84.87ZM383.95,454.03l49.2,85.21,49.02-84.91-98.22-.3ZM375.49,639.12l49.12-85.07-98.32-.16,49.2,85.23ZM317.66,558.97l-49.05,84.96,98.01-.16-48.96-84.8ZM375.27,459l-49.01,84.89,98.11.16-49.1-85.05ZM361.21,463.36l-37.62,22.39-.68,43.95,38.3-66.34ZM278.6,454l40,23.09,38.78-23.09h-78.78ZM273.6,462.66l39.29,68.05.7-44.96-39.99-23.09ZM265.06,512.7l38.85,22.43-38.85-67.29v44.86ZM221.05,543.88h78.01l-39-22.52-39.01,22.52ZM216.05,535.22l39.01-22.52v-45.04l-39.01,67.56ZM211.05,553.88l49.01,84.88,49-84.88h-98.01ZM153.19,644.11l98.32-.16-49.12-85.07-49.2,85.23ZM100.51,735.34l39.99-23.09-.7-44.96-39.29,68.05ZM184.28,744l-38.78-23.09-40,23.09h78.78ZM188.12,734.64l-38.3-66.34.68,43.95,37.62,22.39ZM251.27,653.95l-98.11.16,49.01,84.89,49.1-85.05ZM309.07,743.66l-49.02-84.9-49.2,85.21,98.22-.31ZM317.71,738.64l49-84.87-97.91.16,48.91,84.71ZM331.38,734.98l39.01-22.52v-45.04l-39.01,67.56ZM414.39,743.64l-39-22.52-39.01,22.52h78.01ZM419.24,734.89l-38.85-67.29v44.86l38.85,22.43ZM428.15,685.3l-39.01-22.52,39.01,67.56v-45.04ZM472.15,654.12h-78.01l39.01,22.52,39-22.52ZM477.15,662.78l-39,22.52v45.04l39-67.56ZM482.15,644.12l-49-84.88-49.01,84.88h98.01ZM539.83,554.23l-98.12-.16,49.1,85.05,49.02-84.89ZM543.49,485.54l-39.01-22.52,39.01,67.56v-45.04ZM587.49,454.36h-78.01l39.01,22.52,39-22.52ZM592.49,463.02l-39,22.52v45.04l39-67.56Z"/><polygon class="cls-1" points="361.21 463.36 322.91 529.7 323.59 485.75 361.21 463.36"/><polygon class="cls-1" points="424.38 544.05 326.26 543.89 375.27 459 424.38 544.05"/><polygon class="cls-1" points="424.6 554.05 375.49 639.12 326.28 553.89 424.6 554.05"/><polygon class="cls-1" points="357.39 454 318.6 477.09 278.6 454 357.39 454"/><polygon class="cls-1" points="313.59 485.75 312.89 530.71 273.6 462.66 313.59 485.75"/><polygon class="cls-1" points="20.13 643.77 -77.88 643.93 -28.84 558.97 20.13 643.77"/><polygon class="cls-1" points="196.99 485.54 196.99 530.58 157.97 463.02 196.99 485.54"/><polygon class="cls-1" points="240.99 454.36 201.99 476.88 162.97 454.36 240.99 454.36"/><path class="cls-2" d="M264.64,449.59c0,.07-.01.15-.02.23-.02.28-.06.56-.14.83v.03c-.08.26-.18.51-.29.77-.04.07-.07.14-.11.21-.03.07-.06.14-.1.2l-57.66,99.88-115.33,199.76c-.04.06-.09.12-.13.18-.04.07-.08.14-.13.2-.16.23-.33.44-.52.64,0,0,0,.01-.02.02-.2.2-.42.37-.65.54-.07.04-.13.08-.19.12-.22.14-.44.26-.67.37-.04,0-.06.03-.1.04-.26.11-.53.19-.81.25-.07.02-.15.04-.22.05-.29.05-.59.09-.89.09s-.6-.04-.89-.09c-.08-.01-.15-.03-.23-.05-.25-.05-.5-.13-.74-.22H-28.8l-115.5.36h-115.34c-.22,0-.44-.02-.66-.04-.07-.01-.14-.03-.2-.04-.15-.03-.29-.05-.44-.09-.08-.02-.16-.06-.25-.08-.12-.04-.24-.08-.36-.13-.07-.03-.14-.07-.21-.1-.13-.06-.25-.11-.38-.19-.05-.03-.1-.06-.15-.09-.13-.09-.26-.17-.39-.27-.04-.03-.07-.06-.11-.09-.13-.11-.26-.21-.38-.33-.05-.05-.09-.1-.13-.15-.11-.11-.21-.22-.3-.34-.14-.18-.27-.37-.38-.56-.15-.26-.27-.54-.37-.82-.02-.07-.05-.14-.07-.22-.08-.27-.15-.54-.19-.82v-.11c-.03-.25-.03-.5-.02-.76,0-.07,0-.15.01-.23.03-.28.07-.56.14-.83,0-.01.01-.02.01-.03.07-.26.17-.51.29-.77.03-.07.07-.14.1-.21.04-.07.06-.14.1-.2L-91.25,447.32h.01c.1-.28.21-.56.36-.82.15-.26.33-.5.52-.73.05-.06.11-.11.16-.17.19-.21.4-.4.62-.58.03-.02.06-.03.09-.06.2-.14.42-.27.64-.39.07-.04.14-.07.22-.1.25-.12.51-.23.78-.3.02,0,.03,0,.04-.01.26-.06.53-.1.8-.13.08-.01.16-.01.24-.02.08,0,.15,0,.22,0H28.77l115.56.36h115.31c.08,0,.15.01.22.02.09,0,.17,0,.25.01.27.03.54.07.79.14h.04c.28.08.54.18.79.3.07.03.14.07.21.1.23.12.44.25.65.4.03.02.06.03.09.06.22.17.42.36.62.57l.15.18c.19.22.37.46.52.72s.27.54.37.82c.03.07.05.14.07.22.09.27.16.54.19.82.01.04.01.07.01.11.03.25.03.5.02.76ZM144.32,459.36l-48.91,84.71,97.91.16-49-84.87ZM37.45,454.03l49.2,85.21,49.02-84.91-98.22-.3ZM28.99,639.12l49.12-85.07-98.32-.16,49.2,85.23ZM-28.84,558.97l-49.05,84.96,98.01-.16-48.96-84.8ZM28.77,459l-49.01,84.89,98.11.16-49.1-85.05ZM14.71,463.36l-37.62,22.39-.68,43.95,38.3-66.34ZM-67.9,454l40,23.09,38.78-23.09h-78.78ZM-72.9,462.66l39.29,68.05.7-44.96-39.99-23.09ZM-81.44,512.7l38.85,22.43-38.85-67.29v44.86ZM-125.45,543.88H-47.44l-39-22.52-39.01,22.52ZM-130.45,535.22l39.01-22.52v-45.04l-39.01,67.56ZM-135.45,553.88l49.01,84.88,49-84.88h-98.01ZM-193.31,644.11l98.32-.16-49.12-85.07-49.2,85.23ZM-245.99,735.34l39.99-23.09-.7-44.96-39.29,68.05ZM-162.22,744l-38.78-23.09-40,23.09h78.78ZM-158.38,734.64l-38.3-66.34.68,43.95,37.62,22.39ZM-95.23,653.95l-98.11.16,49.01,84.89,49.1-85.05ZM-37.43,743.66l-49.02-84.9-49.2,85.21,98.22-.31ZM-28.79,738.64l49-84.87-97.91.16,48.91,84.71ZM-15.12,734.98l39.01-22.52v-45.04l-39.01,67.56ZM67.89,743.64l-39-22.52-39.01,22.52h78.01ZM72.74,734.89l-38.85-67.29v44.86l38.85,22.43ZM81.65,685.3l-39.01-22.52,39.01,67.56v-45.04ZM125.65,654.12H47.64l39.01,22.52,39-22.52ZM130.65,662.78l-39,22.52v45.04l39-67.56ZM135.65,644.12l-49-84.88-49.01,84.88h98.01ZM193.33,554.23l-98.12-.16,49.1,85.05,49.02-84.89ZM196.99,485.54l-39.01-22.52,39.01,67.56v-45.04ZM240.99,454.36h-78.01l39.01,22.52,39-22.52ZM245.99,463.02l-39,22.52v45.04l39-67.56Z"/><polygon class="cls-1" points="135.68 454.33 86.65 539.24 37.45 454.03 135.68 454.33"/><polygon class="cls-1" points="135.65 644.12 37.64 644.12 86.65 559.24 135.65 644.12"/><polygon class="cls-1" points="14.71 463.36 -23.59 529.7 -22.91 485.75 14.71 463.36"/><polygon class="cls-1" points="77.88 544.05 -20.24 543.89 28.77 459 77.88 544.05"/><polygon class="cls-1" points="193.32 544.23 95.4 544.07 144.32 459.36 193.32 544.23"/><polygon class="cls-1" points="78.1 554.05 28.99 639.12 -20.22 553.89 78.1 554.05"/><polygon class="cls-1" points="10.89 454 -27.9 477.09 -67.9 454 10.89 454"/><polygon class="cls-1" points="193.33 554.23 144.32 639.12 95.21 554.07 193.33 554.23"/><polygon class="cls-1" points="361.37 435.14 323.75 412.75 323.07 368.8 361.37 435.14"/><polygon class="cls-1" points="424.52 354.45 375.43 439.5 326.41 354.61 424.52 354.45"/><polygon class="cls-1" points="424.76 344.45 326.44 344.61 375.64 259.38 424.76 344.45"/><polygon class="cls-1" points="357.53 444.5 278.76 444.5 318.76 421.41 357.53 444.5"/><path class="cls-2" d="M784.39,150.09c0,.07-.01.15-.02.23-.02.28-.06.56-.14.83v.03c-.08.26-.18.51-.29.77-.04.07-.07.14-.11.21-.03.07-.06.14-.1.2l-57.66,99.88-115.33,199.76c-.04.06-.09.12-.13.18-.04.07-.08.14-.13.2-.16.23-.33.44-.52.64,0,0,0,.01-.02.02-.2.2-.42.37-.65.54-.07.04-.13.08-.19.12-.22.14-.44.26-.67.37-.04,0-.06.03-.1.04-.26.11-.53.19-.81.25-.07.02-.15.04-.22.05-.29.05-.59.09-.89.09s-.6-.04-.89-.09c-.08-.01-.15-.03-.23-.05-.25-.05-.5-.13-.74-.22h-113.6l-115.5.36h-115.34c-.22,0-.44-.02-.66-.04-.07-.01-.14-.03-.2-.04-.15-.03-.29-.05-.44-.09-.08-.02-.16-.06-.25-.08-.12-.04-.24-.08-.36-.13-.07-.03-.14-.07-.21-.1-.13-.06-.25-.11-.38-.19-.05-.03-.1-.06-.15-.09-.13-.09-.26-.17-.39-.27-.04-.03-.07-.06-.11-.09-.13-.11-.26-.21-.38-.33-.05-.05-.09-.1-.13-.15-.11-.11-.21-.22-.3-.34-.14-.18-.27-.37-.38-.56-.15-.26-.27-.54-.37-.82-.02-.07-.05-.14-.07-.22-.08-.27-.15-.54-.19-.82v-.11c-.03-.25-.03-.5-.02-.76,0-.07,0-.15.01-.23.03-.28.07-.56.14-.83,0-.01.01-.02.01-.03.07-.26.17-.51.29-.77.03-.07.07-.14.1-.21.04-.07.06-.14.1-.2l172.73-299.18h.01c.1-.28.21-.56.36-.82.15-.26.33-.5.52-.73.05-.06.11-.11.16-.17.19-.21.4-.4.62-.58.03-.02.06-.03.09-.06.2-.14.42-.27.64-.39.07-.04.14-.07.22-.1.25-.12.51-.23.78-.3.02,0,.03,0,.04-.01.26-.06.53-.1.8-.13.08-.01.16-.01.24-.02.08,0,.15,0,.22,0h115.33l115.56.36h115.31c.08,0,.15.01.22.02.09,0,.17,0,.25.01.27.03.54.07.79.14h.04c.28.08.54.18.79.3.07.03.14.07.21.1.23.12.44.25.65.4.03.02.06.03.09.06.22.17.42.36.62.57l.15.18c.19.22.37.46.52.72s.27.54.37.82c.03.07.05.14.07.22.09.27.16.54.19.82.01.04.01.07.01.11.03.25.03.5.02.76ZM664.07,159.86l-48.91,84.71,97.91.16-49-84.87ZM557.2,154.53l49.2,85.21,49.02-84.91-98.22-.3ZM548.74,339.62l49.12-85.07-98.32-.16,49.2,85.23ZM490.91,259.47l-49.05,84.96,98.01-.16-48.96-84.8ZM548.52,159.5l-49.01,84.89,98.11.16-49.1-85.05ZM534.46,163.86l-37.62,22.39-.68,43.95,38.3-66.34ZM451.85,154.5l40,23.09,38.78-23.09h-78.78ZM446.85,163.16l39.29,68.05.7-44.96-39.99-23.09ZM438.31,213.2l38.85,22.43-38.85-67.29v44.86ZM394.3,244.38h78.01l-39-22.52-39.01,22.52ZM389.3,235.72l39.01-22.52v-45.04l-39.01,67.56ZM384.3,254.38l49.01,84.88,49-84.88h-98.01ZM326.44,344.61l98.32-.16-49.12-85.07-49.2,85.23ZM273.76,435.84l39.99-23.09-.7-44.96-39.29,68.05ZM357.53,444.5l-38.78-23.09-40,23.09h78.78ZM361.37,435.14l-38.3-66.34.68,43.95,37.62,22.39ZM424.52,354.45l-98.11.16,49.01,84.89,49.1-85.05ZM482.32,444.16l-49.02-84.9-49.2,85.21,98.22-.31ZM490.96,439.14l49-84.87-97.91.16,48.91,84.71ZM504.63,435.48l39.01-22.52v-45.04l-39.01,67.56ZM587.64,444.14l-39-22.52-39.01,22.52h78.01ZM592.49,435.39l-38.85-67.29v44.86l38.85,22.43ZM601.4,385.8l-39.01-22.52,39.01,67.56v-45.04ZM645.4,354.62h-78.01l39.01,22.52,39-22.52ZM650.4,363.28l-39,22.52v45.04l39-67.56ZM655.4,344.62l-49-84.88-49.01,84.88h98.01ZM713.08,254.73l-98.12-.16,49.1,85.05,49.02-84.89ZM716.74,186.04l-39.01-22.52,39.01,67.56v-45.04ZM760.74,154.86h-78.01l39.01,22.52,39-22.52ZM765.74,163.52l-39,22.52v45.04l39-67.56Z"/><polygon class="cls-1" points="197.14 367.92 197.14 412.96 158.13 435.48 197.14 367.92"/><polygon class="cls-1" points="245.99 435.39 207.14 412.96 207.14 368.1 245.99 435.39"/><polygon class="cls-1" points="241.14 444.14 163.13 444.14 202.14 421.62 241.14 444.14"/><polygon class="cls-1" points="193.38 344.27 95.37 344.43 144.41 259.47 193.38 344.27"/><polygon class="cls-1" points="130.65 235.63 91.81 213.2 91.81 168.34 130.65 235.63"/><polygon class="cls-1" points="135.81 254.38 86.81 339.26 37.8 254.38 135.81 254.38"/><polygon class="cls-1" points="125.81 244.38 47.8 244.38 86.81 221.86 125.81 244.38"/><polygon class="cls-1" points="193.46 354.27 144.46 439.14 95.56 354.43 193.46 354.27"/><polygon class="cls-1" points="14.87 435.14 -22.75 412.75 -23.43 368.8 14.87 435.14"/><polygon class="cls-1" points="78.02 354.45 28.93 439.5 -20.09 354.61 78.02 354.45"/><polygon class="cls-1" points="135.82 444.16 37.6 444.47 86.81 359.26 135.82 444.16"/><polygon class="cls-1" points="78.26 344.45 -20.06 344.61 29.14 259.38 78.26 344.45"/><polygon class="cls-1" points="81.81 168.16 81.81 213.2 42.8 235.72 81.81 168.16"/><polygon class="cls-1" points="11.03 444.5 -67.74 444.5 -27.74 421.41 11.03 444.5"/><polygon class="cls-1" points="370.24 186.04 370.24 231.08 331.22 163.52 370.24 186.04"/><polygon class="cls-1" points="414.24 154.86 375.24 177.38 336.22 154.86 414.24 154.86"/><path class="cls-2" d="M437.89,150.09c0,.07-.01.15-.02.23-.02.28-.06.56-.14.83v.03c-.08.26-.18.51-.29.77-.04.07-.07.14-.11.21-.03.07-.06.14-.1.2l-57.66,99.88-115.33,199.76c-.04.06-.09.12-.13.18-.04.07-.08.14-.13.2-.16.23-.33.44-.52.64,0,0,0,.01-.02.02-.2.2-.42.37-.65.54-.07.04-.13.08-.19.12-.22.14-.44.26-.67.37-.04,0-.06.03-.1.04-.26.11-.53.19-.81.25-.07.02-.15.04-.22.05-.29.05-.59.09-.89.09s-.6-.04-.89-.09c-.08-.01-.15-.03-.23-.05-.25-.05-.5-.13-.74-.22h-113.6l-115.5.36h-115.34c-.22,0-.44-.02-.66-.04-.07-.01-.14-.03-.2-.04-.15-.03-.29-.05-.44-.09-.08-.02-.16-.06-.25-.08-.12-.04-.24-.08-.36-.13-.07-.03-.14-.07-.21-.1-.13-.06-.25-.11-.38-.19-.05-.03-.1-.06-.15-.09-.13-.09-.26-.17-.39-.27-.04-.03-.07-.06-.11-.09-.13-.11-.26-.21-.38-.33-.05-.05-.09-.1-.13-.15-.11-.11-.21-.22-.3-.34-.14-.18-.27-.37-.38-.56-.15-.26-.27-.54-.37-.82-.02-.07-.05-.14-.07-.22-.08-.27-.15-.54-.19-.82v-.11c-.03-.25-.03-.5-.02-.76,0-.07,0-.15.01-.23.03-.28.07-.56.14-.83,0-.01.01-.02.01-.03.07-.26.17-.51.29-.77.03-.07.07-.14.1-.21.04-.07.06-.14.1-.2L82,147.82h.01c.1-.28.21-.56.36-.82.15-.26.33-.5.52-.73.05-.06.11-.11.16-.17.19-.21.4-.4.62-.58.03-.02.06-.03.09-.06.2-.14.42-.27.64-.39.07-.04.14-.07.22-.1.25-.12.51-.23.78-.3.02,0,.03,0,.04-.01.26-.06.53-.1.8-.13.08-.01.16-.01.24-.02.08,0,.15,0,.22,0h115.33l115.56.36h115.31c.08,0,.15.01.22.02.09,0,.17,0,.25.01.27.03.54.07.79.14h.04c.28.08.54.18.79.3.07.03.14.07.21.1.23.12.44.25.65.4.03.02.06.03.09.06.22.17.42.36.62.57l.15.18c.19.22.37.46.52.72s.27.54.37.82c.03.07.05.14.07.22.09.27.16.54.19.82.01.04.01.07.01.11.03.25.03.5.02.76ZM317.57,159.86l-48.91,84.71,97.91.16-49-84.87ZM210.7,154.53l49.2,85.21,49.02-84.91-98.22-.3ZM202.24,339.62l49.12-85.07-98.32-.16,49.2,85.23ZM144.41,259.47l-49.05,84.96,98.01-.16-48.96-84.8ZM202.02,159.5l-49.01,84.89,98.11.16-49.1-85.05ZM187.96,163.86l-37.62,22.39-.68,43.95,38.3-66.34ZM105.35,154.5l40,23.09,38.78-23.09h-78.78ZM100.35,163.16l39.29,68.05.7-44.96-39.99-23.09ZM91.81,213.2l38.85,22.43-38.85-67.29v44.86ZM47.8,244.38h78.01l-39-22.52-39.01,22.52ZM42.8,235.72l39.01-22.52v-45.04l-39.01,67.56ZM37.8,254.38l49.01,84.88,49-84.88H37.8ZM-20.06,344.61l98.32-.16-49.12-85.07-49.2,85.23ZM-72.74,435.84l39.99-23.09-.7-44.96-39.29,68.05ZM11.03,444.5l-38.78-23.09-40,23.09H11.03ZM14.87,435.14l-38.3-66.34.68,43.95,37.62,22.39ZM78.02,354.45l-98.11.16,49.01,84.89,49.1-85.05ZM135.82,444.16l-49.02-84.9-49.2,85.21,98.22-.31ZM144.46,439.14l49-84.87-97.91.16,48.91,84.71ZM158.13,435.48l39.01-22.52v-45.04l-39.01,67.56ZM241.14,444.14l-39-22.52-39.01,22.52h78.01ZM245.99,435.39l-38.85-67.29v44.86l38.85,22.43ZM254.9,385.8l-39.01-22.52,39.01,67.56v-45.04ZM298.9,354.62h-78.01l39.01,22.52,39-22.52ZM303.9,363.28l-39,22.52v45.04l39-67.56ZM308.9,344.62l-49-84.88-49.01,84.88h98.01ZM366.58,254.73l-98.12-.16,49.1,85.05,49.02-84.89ZM370.24,186.04l-39.01-22.52,39.01,67.56v-45.04ZM414.24,154.86h-78.01l39.01,22.52,39-22.52ZM419.24,163.52l-39,22.52v45.04l39-67.56Z"/><polygon class="cls-1" points="308.93 154.83 259.9 239.74 210.7 154.53 308.93 154.83"/><polygon class="cls-1" points="298.9 354.62 259.9 377.14 220.89 354.62 298.9 354.62"/><polygon class="cls-1" points="308.9 344.62 210.89 344.62 259.9 259.74 308.9 344.62"/><polygon class="cls-1" points="254.9 385.8 254.9 430.84 215.89 363.28 254.9 385.8"/><polygon class="cls-1" points="187.96 163.86 149.66 230.2 150.34 186.25 187.96 163.86"/><polygon class="cls-1" points="251.13 244.55 153.01 244.39 202.02 159.5 251.13 244.55"/><polygon class="cls-1" points="366.57 244.73 268.65 244.57 317.57 159.86 366.57 244.73"/><polygon class="cls-1" points="251.35 254.55 202.24 339.62 153.03 254.39 251.35 254.55"/><polygon class="cls-1" points="303.9 363.28 264.9 430.84 264.9 385.8 303.9 363.28"/><polygon class="cls-1" points="184.14 154.5 145.35 177.59 105.35 154.5 184.14 154.5"/><polygon class="cls-1" points="366.58 254.73 317.57 339.62 268.46 254.57 366.58 254.73"/><polygon class="cls-1" points="140.34 186.25 139.64 231.21 100.35 163.16 140.34 186.25"/><polygon class="cls-1" points="23.74 186.04 23.74 231.08 -15.28 163.52 23.74 186.04"/><polygon class="cls-1" points="67.74 154.86 28.74 177.38 -10.28 154.86 67.74 154.86"/><path class="cls-2" d="M91.39,150.09c0,.07-.01.15-.02.23-.02.28-.06.56-.14.83v.03c-.08.26-.18.51-.29.77-.04.07-.07.14-.11.21-.03.07-.06.14-.1.2l-57.66,99.88-115.33,199.76c-.04.06-.09.12-.13.18-.04.07-.08.14-.13.2-.16.23-.33.44-.52.64,0,0,0,.01-.02.02-.2.2-.42.37-.65.54-.07.04-.13.08-.19.12-.22.14-.44.26-.67.37-.04,0-.06.03-.1.04-.26.11-.53.19-.81.25-.07.02-.15.04-.22.05-.29.05-.59.09-.89.09s-.6-.04-.89-.09c-.08-.01-.15-.03-.23-.05-.25-.05-.5-.13-.74-.22h-113.6l-115.5.36h-115.34c-.22,0-.44-.02-.66-.04-.07-.01-.14-.03-.2-.04-.15-.03-.29-.05-.44-.09-.08-.02-.16-.06-.25-.08-.12-.04-.24-.08-.36-.13-.07-.03-.14-.07-.21-.1-.13-.06-.25-.11-.38-.19-.05-.03-.1-.06-.15-.09-.13-.09-.26-.17-.39-.27-.04-.03-.07-.06-.11-.09-.13-.11-.26-.21-.38-.33-.05-.05-.09-.1-.13-.15-.11-.11-.21-.22-.3-.34-.14-.18-.27-.37-.38-.56-.15-.26-.27-.54-.37-.82-.02-.07-.05-.14-.07-.22-.08-.27-.15-.54-.19-.82v-.11c-.03-.25-.03-.5-.02-.76,0-.07,0-.15.01-.23.03-.28.07-.56.14-.83,0-.01.01-.02.01-.03.07-.26.17-.51.29-.77.03-.07.07-.14.1-.21.04-.07.06-.14.1-.2l172.73-299.18h.01c.1-.28.21-.56.36-.82.15-.26.33-.5.52-.73.05-.06.11-.11.16-.17.19-.21.4-.4.62-.58.03-.02.06-.03.09-.06.2-.14.42-.27.64-.39.07-.04.14-.07.22-.1.25-.12.51-.23.78-.3.02,0,.03,0,.04-.01.26-.06.53-.1.8-.13.08-.01.16-.01.24-.02.08,0,.15,0,.22,0h115.33l115.56.36h115.31c.08,0,.15.01.22.02.09,0,.17,0,.25.01.27.03.54.07.79.14h.04c.28.08.54.18.79.3.07.03.14.07.21.1.23.12.44.25.65.4.03.02.06.03.09.06.22.17.42.36.62.57l.15.18c.19.22.37.46.52.72s.27.54.37.82c.03.07.05.14.07.22.09.27.16.54.19.82.01.04.01.07.01.11.03.25.03.5.02.76ZM-28.93,159.86l-48.91,84.71,97.91.16-49-84.87ZM-135.8,154.53l49.2,85.21,49.02-84.91-98.22-.3ZM-144.26,339.62l49.12-85.07-98.32-.16,49.2,85.23ZM-202.09,259.47l-49.05,84.96,98.01-.16-48.96-84.8ZM-144.48,159.5l-49.01,84.89,98.11.16-49.1-85.05ZM-158.54,163.86l-37.62,22.39-.68,43.95,38.3-66.34ZM-241.15,154.5l40,23.09,38.78-23.09h-78.78ZM-246.15,163.16l39.29,68.05.7-44.96-39.99-23.09ZM-254.69,213.2l38.85,22.43-38.85-67.29v44.86ZM-298.7,244.38h78.01l-39-22.52-39.01,22.52ZM-303.7,235.72l39.01-22.52v-45.04l-39.01,67.56ZM-308.7,254.38l49.01,84.88,49-84.88h-98.01ZM-366.56,344.61l98.32-.16-49.12-85.07-49.2,85.23ZM-419.24,435.84l39.99-23.09-.7-44.96-39.29,68.05ZM-335.47,444.5l-38.78-23.09-40,23.09h78.78ZM-331.63,435.14l-38.3-66.34.68,43.95,37.62,22.39ZM-268.48,354.45l-98.11.16,49.01,84.89,49.1-85.05ZM-210.68,444.16l-49.02-84.9-49.2,85.21,98.22-.31ZM-202.04,439.14l49-84.87-97.91.16,48.91,84.71ZM-188.37,435.48l39.01-22.52v-45.04l-39.01,67.56ZM-105.36,444.14l-39-22.52-39.01,22.52h78.01ZM-100.51,435.39l-38.85-67.29v44.86l38.85,22.43ZM-91.6,385.8l-39.01-22.52,39.01,67.56v-45.04ZM-47.6,354.62h-78.01l39.01,22.52,39-22.52ZM-42.6,363.28l-39,22.52v45.04l39-67.56ZM-37.6,344.62l-49-84.88-49.01,84.88H-37.6ZM20.08,254.73l-98.12-.16,49.1,85.05,49.02-84.89ZM23.74,186.04l-39.01-22.52,39.01,67.56v-45.04ZM67.74,154.86H-10.28l39.01,22.52,39-22.52ZM72.74,163.52l-39,22.52v45.04l39-67.56Z"/><polygon class="cls-1" points="20.07 244.73 -77.85 244.57 -28.93 159.86 20.07 244.73"/><polygon class="cls-1" points="20.08 254.73 -28.93 339.62 -78.04 254.57 20.08 254.73"/><polygon class="cls-1" points="370.39 68.42 370.39 113.46 331.38 135.98 370.39 68.42"/><polygon class="cls-1" points="414.39 144.64 336.38 144.64 375.39 122.12 414.39 144.64"/><polygon class="cls-1" points="366.63 44.77 268.62 44.93 317.66 -40.03 366.63 44.77"/><polygon class="cls-1" points="309.06 -45.12 260.06 39.76 211.05 -45.12 309.06 -45.12"/><polygon class="cls-1" points="366.71 54.77 317.71 139.64 268.81 54.93 366.71 54.77"/><polygon class="cls-1" points="188.12 135.64 150.5 113.25 149.82 69.3 188.12 135.64"/><polygon class="cls-1" points="251.27 54.95 202.18 140 153.16 55.11 251.27 54.95"/><polygon class="cls-1" points="309.07 144.66 210.85 144.97 260.06 59.76 309.07 144.66"/><polygon class="cls-1" points="251.51 44.95 153.19 45.11 202.39 -40.12 251.51 44.95"/><polygon class="cls-1" points="184.28 145 105.51 145 145.51 121.91 184.28 145"/><path class="cls-2" d="M611.14-149.41c0,.07-.01.15-.02.23-.02.28-.06.56-.14.83v.03c-.08.26-.18.51-.29.77-.04.07-.07.14-.11.21-.03.07-.06.14-.1.2l-57.66,99.88-115.33,199.76c-.04.06-.09.12-.13.18-.04.07-.08.14-.13.2-.16.23-.33.44-.52.64,0,0,0,.01-.02.02-.2.2-.42.37-.65.54-.07.04-.13.08-.19.12-.22.14-.44.26-.67.37-.04,0-.06.03-.1.04-.26.11-.53.19-.81.25-.07.02-.15.04-.22.05-.29.05-.59.09-.89.09s-.6-.04-.89-.09c-.08-.01-.15-.03-.23-.05-.25-.05-.5-.13-.74-.22h-113.6l-115.5.36h-115.34c-.22,0-.44-.02-.66-.04-.07-.01-.14-.03-.2-.04-.15-.03-.29-.05-.44-.09-.08-.02-.16-.06-.25-.08-.12-.04-.24-.08-.36-.13-.07-.03-.14-.07-.21-.1-.13-.06-.25-.11-.38-.19-.05-.03-.1-.06-.15-.09-.13-.09-.26-.17-.39-.27-.04-.03-.07-.06-.11-.09-.13-.11-.26-.21-.38-.33-.05-.05-.09-.1-.13-.15-.11-.11-.21-.22-.3-.34-.14-.18-.27-.37-.38-.56-.15-.26-.27-.54-.37-.82-.02-.07-.05-.14-.07-.22-.08-.27-.15-.54-.19-.82v-.11c-.03-.25-.03-.5-.02-.76,0-.07,0-.15.01-.23.03-.28.07-.56.14-.83,0-.01.01-.02.01-.03.07-.26.17-.51.29-.77.03-.07.07-.14.1-.21.04-.07.06-.14.1-.2L255.25-151.68h.01c.1-.28.21-.56.36-.82.15-.26.33-.5.52-.73.05-.06.11-.11.16-.17.19-.21.4-.4.62-.58.03-.02.06-.03.09-.06.2-.14.42-.27.64-.39.07-.04.14-.07.22-.1.25-.12.51-.23.78-.3.02,0,.03,0,.04-.01.26-.06.53-.1.8-.13.08-.01.16-.01.24-.02.08,0,.15,0,.22,0h115.33l115.56.36h115.31c.08,0,.15.01.22.02.09,0,.17,0,.25.01.27.03.54.07.79.14h.04c.28.08.54.18.79.3.07.03.14.07.21.1.23.12.44.25.65.4.03.02.06.03.09.06.22.17.42.36.62.57l.15.18c.19.22.37.46.52.72s.27.54.37.82c.03.07.05.14.07.22.09.27.16.54.19.82.01.04.01.07.01.11.03.25.03.5.02.76ZM490.82-139.64l-48.91,84.71,97.91.16-49-84.87ZM383.95-144.97l49.2,85.21,49.02-84.91-98.22-.3ZM375.49,40.12l49.12-85.07-98.32-.16,49.2,85.23ZM317.66-40.03l-49.05,84.96,98.01-.16-48.96-84.8ZM375.27-140l-49.01,84.89,98.11.16-49.1-85.05ZM361.21-135.64l-37.62,22.39-.68,43.95,38.3-66.34ZM278.6-145l40,23.09,38.78-23.09h-78.78ZM273.6-136.34l39.29,68.05.7-44.96-39.99-23.09ZM265.06-86.3l38.85,22.43-38.85-67.29v44.86ZM221.05-55.12h78.01l-39-22.52-39.01,22.52ZM216.05-63.78l39.01-22.52v-45.04l-39.01,67.56ZM211.05-45.12l49.01,84.88,49-84.88h-98.01ZM153.19,45.11l98.32-.16-49.12-85.07-49.2,85.23ZM100.51,136.34l39.99-23.09-.7-44.96-39.29,68.05ZM184.28,145l-38.78-23.09-40,23.09h78.78ZM188.12,135.64l-38.3-66.34.68,43.95,37.62,22.39ZM251.27,54.95l-98.11.16,49.01,84.89,49.1-85.05ZM309.07,144.66l-49.02-84.9-49.2,85.21,98.22-.31ZM317.71,139.64l49-84.87-97.91.16,48.91,84.71ZM331.38,135.98l39.01-22.52v-45.04l-39.01,67.56ZM414.39,144.64l-39-22.52-39.01,22.52h78.01ZM419.24,135.89l-38.85-67.29v44.86l38.85,22.43ZM428.15,86.3l-39.01-22.52,39.01,67.56v-45.04ZM472.15,55.12h-78.01l39.01,22.52,39-22.52ZM477.15,63.78l-39,22.52v45.04l39-67.56ZM482.15,45.12l-49-84.88-49.01,84.88h98.01ZM539.83-44.77l-98.12-.16,49.1,85.05,49.02-84.89ZM543.49-113.46l-39.01-22.52,39.01,67.56v-45.04ZM587.49-144.64h-78.01l39.01,22.52,39-22.52ZM592.49-135.98l-39,22.52v45.04l39-67.56Z"/><polygon class="cls-1" points="424.6 -44.95 375.49 40.12 326.28 -45.11 424.6 -44.95"/><polygon class="cls-1" points="23.89 68.42 23.89 113.46 -15.12 135.98 23.89 68.42"/><polygon class="cls-1" points="72.74 135.89 33.89 113.46 33.89 68.6 72.74 135.89"/><polygon class="cls-1" points="67.89 144.64 -10.12 144.64 28.89 122.12 67.89 144.64"/><polygon class="cls-1" points="20.13 44.77 -77.88 44.93 -28.84 -40.03 20.13 44.77"/><polygon class="cls-1" points="20.21 54.77 -28.79 139.64 -77.69 54.93 20.21 54.77"/><path class="cls-2" d="M264.64-149.41c0,.07-.01.15-.02.23-.02.28-.06.56-.14.83v.03c-.08.26-.18.51-.29.77-.04.07-.07.14-.11.21-.03.07-.06.14-.1.2l-57.66,99.88-115.33,199.76c-.04.06-.09.12-.13.18-.04.07-.08.14-.13.2-.16.23-.33.44-.52.64,0,0,0,.01-.02.02-.2.2-.42.37-.65.54-.07.04-.13.08-.19.12-.22.14-.44.26-.67.37-.04,0-.06.03-.1.04-.26.11-.53.19-.81.25-.07.02-.15.04-.22.05-.29.05-.59.09-.89.09s-.6-.04-.89-.09c-.08-.01-.15-.03-.23-.05-.25-.05-.5-.13-.74-.22H-28.8l-115.5.36h-115.34c-.22,0-.44-.02-.66-.04-.07-.01-.14-.03-.2-.04-.15-.03-.29-.05-.44-.09-.08-.02-.16-.06-.25-.08-.12-.04-.24-.08-.36-.13-.07-.03-.14-.07-.21-.1-.13-.06-.25-.11-.38-.19-.05-.03-.1-.06-.15-.09-.13-.09-.26-.17-.39-.27-.04-.03-.07-.06-.11-.09-.13-.11-.26-.21-.38-.33-.05-.05-.09-.1-.13-.15-.11-.11-.21-.22-.3-.34-.14-.18-.27-.37-.38-.56-.15-.26-.27-.54-.37-.82-.02-.07-.05-.14-.07-.22-.08-.27-.15-.54-.19-.82v-.11c-.03-.25-.03-.5-.02-.76,0-.07,0-.15.01-.23.03-.28.07-.56.14-.83,0-.01.01-.02.01-.03.07-.26.17-.51.29-.77.03-.07.07-.14.1-.21.04-.07.06-.14.1-.2L-91.25-151.68h.01c.1-.28.21-.56.36-.82.15-.26.33-.5.52-.73.05-.06.11-.11.16-.17.19-.21.4-.4.62-.58.03-.02.06-.03.09-.06.2-.14.42-.27.64-.39.07-.04.14-.07.22-.1.25-.12.51-.23.78-.3.02,0,.03,0,.04-.01.26-.06.53-.1.8-.13.08-.01.16-.01.24-.02.08,0,.15,0,.22,0H28.77l115.56.36h115.31c.08,0,.15.01.22.02.09,0,.17,0,.25.01.27.03.54.07.79.14h.04c.28.08.54.18.79.3.07.03.14.07.21.1.23.12.44.25.65.4.03.02.06.03.09.06.22.17.42.36.62.57l.15.18c.19.22.37.46.52.72s.27.54.37.82c.03.07.05.14.07.22.09.27.16.54.19.82.01.04.01.07.01.11.03.25.03.5.02.76ZM144.32-139.64l-48.91,84.71,97.91.16-49-84.87ZM37.45-144.97l49.2,85.21,49.02-84.91-98.22-.3ZM28.99,40.12l49.12-85.07-98.32-.16L28.99,40.12ZM-28.84-40.03l-49.05,84.96,98.01-.16L-28.84-40.03ZM28.77-140L-20.24-55.11l98.11.16-49.1-85.05ZM14.71-135.64l-37.62,22.39-.68,43.95L14.71-135.64ZM-67.9-145l40,23.09,38.78-23.09h-78.78ZM-72.9-136.34l39.29,68.05.7-44.96-39.99-23.09ZM-81.44-86.3l38.85,22.43-38.85-67.29v44.86ZM-125.45-55.12H-47.44l-39-22.52-39.01,22.52ZM-130.45-63.78l39.01-22.52v-45.04l-39.01,67.56ZM-135.45-45.12l49.01,84.88L-37.44-45.12h-98.01ZM-193.31,45.11l98.32-.16-49.12-85.07-49.2,85.23ZM-245.99,136.34l39.99-23.09-.7-44.96-39.29,68.05ZM-162.22,145l-38.78-23.09-40,23.09h78.78ZM-158.38,135.64l-38.3-66.34.68,43.95,37.62,22.39ZM-95.23,54.95l-98.11.16,49.01,84.89,49.1-85.05ZM-37.43,144.66l-49.02-84.9-49.2,85.21,98.22-.31ZM-28.79,139.64L20.21,54.77l-97.91.16,48.91,84.71ZM-15.12,135.98l39.01-22.52v-45.04L-15.12,135.98ZM67.89,144.64l-39-22.52-39.01,22.52h78.01ZM72.74,135.89l-38.85-67.29v44.86l38.85,22.43ZM81.65,86.3l-39.01-22.52,39.01,67.56v-45.04ZM125.65,55.12H47.64l39.01,22.52,39-22.52ZM130.65,63.78l-39,22.52v45.04l39-67.56ZM135.65,45.12l-49-84.88L37.64,45.12h98.01ZM193.33-44.77l-98.12-.16,49.1,85.05,49.02-84.89ZM196.99-113.46l-39.01-22.52,39.01,67.56v-45.04ZM240.99-144.64h-78.01l39.01,22.52,39-22.52ZM245.99-135.98l-39,22.52v45.04l39-67.56Z"/><polygon class="cls-1" points="125.65 55.12 86.65 77.64 47.64 55.12 125.65 55.12"/><polygon class="cls-1" points="135.65 45.12 37.64 45.12 86.65 -39.76 135.65 45.12"/><polygon class="cls-1" points="81.65 86.3 81.65 131.34 42.64 63.78 81.65 86.3"/><polygon class="cls-1" points="78.1 -44.95 28.99 40.12 -20.22 -45.11 78.1 -44.95"/><polygon class="cls-1" points="130.65 63.78 91.65 131.34 91.65 86.3 130.65 63.78"/><polygon class="cls-1" points="193.33 -44.77 144.32 40.12 95.21 -44.93 193.33 -44.77"/></pattern></defs><g id="_レイヤー_1-2"><rect class="cls-3" width="1600" height="1200"/></g></svg>